Patient4_TMGait_0pt7_01_left_22_EMG.mot
version=1
nRows=27
nColumns=33
inDegrees=no
endheader
time	1LAddLong	2LGlutMax	3LGlutMed	4LIliopsoas	5LSemiMemb	6LBicFemLong	7LRecFem	8LVastMed	9LVastLat	10LGasMed	11LTibAnt	12lTibPost	13LPeroneusLong	14LSol	15LExtDigLong	16LFlexDigLong	17RAddLong	18RGlutMax	19RGlutMed	20RIliopsoas	21RSemiMemb	22RBicFemLong	23RRecFem	24RVastMed	25RVastLat	26RGasMed	27RTibAnt	28RTibPost	29RPeroneusLong	30RSol	31RExtDigLong	32RFlexDigLong
25.712	0.038605	1.0759	-0.067139	0.006256	0.029907	-0.039368	0.93796	-0.000763	-0.90958	-0.009155	0.1445	-0.056305	-0.031586	-0.17532	0.20752	0.36255	-0.048218	0.62256	-0.21286	0.2388	0.061798	-0.1767	0.69138	-0.076141	-0.046082	0.012207	0.6221	-0.013123	-0.26245	-0.20309	-0.002899	-0.004425
25.713	0.046692	1.0194	-0.079956	-0.003357	0.004425	0.34592	0.94055	-0.007629	-0.84503	0.10422	0.064087	-0.031128	0.02121	-0.16449	0.13275	-0.063629	-0.073242	0.62271	-0.31128	0.28503	0.001984	-0.24262	0.73151	-0.13275	-0.043335	-0.00061	0.7373	-0.024567	-0.3392	-0.16129	-0.002441	-0.007019
25.714	0.049133	0.94528	0.014954	-0.017853	-0.03479	0.42129	0.8931	0.00824	-0.634	0.11276	0.046997	-0.013733	0.033875	-0.10193	0.094757	-0.002441	-0.059509	0.58594	-0.54993	0.3093	-0.022888	-0.20248	0.75684	-0.19058	-0.04776	-0.00885	0.42755	-0.022888	-0.12131	-0.11154	-0.000916	-0.008392
25.715	0.03418	0.90973	-0.15305	-0.00412	-0.041351	0.36194	0.84122	0.011749	-0.53162	0.075989	0.058289	0.008545	0.0383	-0.12665	-0.000916	-0.35812	-0.016632	0.5336	-0.55634	0.2449	-0.085449	-0.16205	0.69473	-0.21545	-0.045929	-0.012207	-0.001068	-0.028229	-0.018158	0.007629	-0.000153	-0.002441
25.716	0.028687	0.85648	-0.11841	-0.025482	-0.06073	0.28427	0.56915	0.031281	-0.48263	0.098114	0.049438	0.042572	-0.014648	-0.18478	0.17212	0.20569	-0.10147	0.47134	-0.3804	0.17258	-0.11246	-0.18524	0.68436	-0.27817	-0.045776	0.004272	-0.18478	-0.027924	0.080261	0.023346	-0.000153	0.00351
25.717	0.011139	0.81177	-0.069885	-0.010223	-0.058441	0.11749	0.35828	0.04715	-0.35721	0.073547	0.027924	0.06546	-0.087738	-0.15213	0.29816	-0.042267	-0.15091	0.37643	-0.56091	0.13626	-0.13931	-0.2771	0.66925	-0.27832	-0.040741	0.007629	-0.068054	-0.021057	0.16861	0.062408	0	-0.006561
25.718	0.00885	0.81818	-0.053253	-0.026093	-0.10651	0.098267	0.27344	0.042114	-0.19684	0.045319	0.034485	0.099945	-0.10223	-0.24902	0.20767	0.084076	-0.16769	0.22995	-0.72174	0.19257	-0.17395	-0.27527	0.69488	-0.23636	-0.05127	0.01358	0.42969	-0.026703	0.22507	0.0914	-0.00061	0.006104
25.719	0.005646	0.78079	-0.15381	-0.010834	-0.18249	0.026398	0.30456	0.033875	-0.22659	-0.045776	0.039673	0.10651	0.12314	-0.47928	-0.27939	0.29953	-0.16266	0.15366	-0.72601	0.1004	-0.19867	-0.27161	0.59357	-0.1712	-0.037689	0.011749	0.075989	-0.019531	0.25192	-0.01709	0.00061	0.007782
25.72	-0.002747	0.78812	-0.10407	-0.005646	-0.24582	-0.29312	0.18097	0.037384	-0.24353	-0.080261	0.015564	0.13062	0.008698	-0.38696	-0.22736	0.10284	-0.21332	0.084686	-0.72113	0.058289	-0.18784	-0.22507	0.5484	-0.14297	-0.013428	0.0177	-0.48172	-0.025787	0.13565	-0.14938	0.000763	-0.001526
25.721	-0.008087	0.78079	-0.058746	-0.021973	-0.21362	-0.37155	0.043488	0.036926	-0.20416	-0.046692	-0.011444	0.12985	-0.075226	0.06134	-0.15549	0.016327	-0.19379	-0.011444	-0.7431	0.048981	-0.072327	-0.080109	0.45776	-0.035553	-0.024872	0.017853	-0.33173	-0.026703	-0.049896	-0.17548	-0.002136	-0.003662
25.722	-0.005035	0.74554	0.08194	-0.002441	-0.094757	-0.17044	-0.14389	0.034943	-0.17777	-0.035858	-0.010071	0.14862	-0.12146	0.21378	-0.12573	0.008698	-0.18616	-0.13473	-0.66452	-0.016785	-0.027161	-0.04776	0.43304	0.050049	-0.00885	0.010986	0.22766	-0.024109	-0.014801	-0.1149	-0.001221	-0.005798
25.723	0.007324	0.71396	0.010376	0.009155	-0.009308	-0.15961	-0.25406	0.022736	-0.11505	-0.007782	-0.060577	0.17395	0.68466	0.065613	-0.06012	0.03006	-0.16007	-0.16022	-0.53925	-0.079956	-0.063782	-0.11337	0.51941	0.086365	-0.02243	-0.003052	0.15595	-0.024109	-0.005341	0.03479	-0.000458	-0.005646
25.724	-0.006714	0.77377	0.033569	0.011444	-0.079956	-0.033112	-0.31708	0.021973	-0.098267	-0.029602	-0.064697	0.18005	1.0716	0.15289	-0.020294	0.04303	-0.046844	-0.21515	-0.48492	-0.13412	-0.060883	-0.16602	0.522	0.10391	-0.005035	-0.005798	-0.23651	-0.027161	0.033112	0.10941	-0.000153	-0.007935
25.725	-0.021667	0.8345	0.11246	0.019226	-0.25879	0.17136	-0.34683	0.028992	-0.1178	-0.002289	-0.053406	0.19012	-0.06958	0.20142	0.012054	0.042419	0.058136	-0.28061	-0.51758	-0.16419	-0.034637	-0.17868	0.56122	0.11139	0.008392	0.000305	-0.68878	-0.023651	0.061493	0.16815	0	-0.007477
25.726	-0.018158	0.89371	0.1268	0.021667	-0.27756	0.32196	-0.45761	0.031433	-0.11688	-0.053711	-0.079651	0.19119	-0.17944	0.22873	0.045166	0.059509	0.11276	-0.26855	-0.50049	-0.23117	-0.003662	-0.13504	0.55618	0.18784	-0.006561	0.00351	-0.35614	-0.024109	0.16602	0.072784	-0.002899	-0.014496
25.727	-0.011139	0.99533	0.16007	0.020905	-0.12283	0.4567	-0.58884	0.028992	-0.09903	-0.048676	0.016632	0.19653	0.28259	0.21881	0.13901	0.046692	0.13382	-0.35233	-0.85449	-0.13962	-0.026855	-0.048065	0.54459	0.12924	0.013275	0.006714	-0.16678	-0.02182	0.271	-0.024414	0.001068	-0.01297
25.728	0.006256	1.1093	0.30502	-0.005493	0.10178	0.18738	-0.65063	0.036011	-0.081177	-0.040894	0.13626	0.21179	0.42862	0.15762	0.10407	0.052032	0.16571	-0.41092	-0.94544	-0.087433	-0.036774	0.005341	0.57404	0.074005	-0.004425	0.003967	-0.50339	-0.020905	0.092163	-0.023804	-0.001068	-0.000305
25.729	0.03479	1.2379	0.28259	-0.023499	0.18143	0.070343	-0.67291	0.024872	0.015259	-0.077667	0.093994	0.31143	-0.059052	0.13275	-0.026398	0.053864	0.14679	-0.44693	-0.77789	-0.00824	-0.001373	-0.024109	0.52933	0.074615	-0.001526	0.001984	-0.44235	-0.020294	-0.03891	-0.005493	-0.000916	-0.010681
25.73	0.058441	1.3408	0.17288	-0.010834	0.021667	0.00412	-0.6279	0.007935	-0.008545	-0.11032	0.061798	0.33981	-0.38605	0.17868	0.13718	0.075836	0.18631	-0.49454	-0.75256	0.057526	0.027313	-0.056305	0.46539	0.11566	-0.006409	0.007019	-0.11276	-0.024719	-0.078583	-0.072021	0.010071	-0.008545
25.731	0.072784	1.3765	-0.021667	-0.002136	-0.045319	-0.3157	-0.63049	0.002747	-0.069885	-0.03952	0.061188	0.31494	-0.74112	-0.013885	0.040588	0.068359	0.1442	-0.63278	-0.74097	0.15793	-0.029755	-0.033264	0.43564	0.1091	-0.000153	0.010529	0.19867	-0.020905	-0.084686	-0.002289	-0.001068	-0.007019
25.732	0.066376	1.3506	-0.00412	0	-0.010986	-0.44495	-0.65384	-0.015259	-0.052948	-0.046844	-0.043488	0.3125	-0.21362	-0.080566	-0.26642	0.052032	0.11292	-0.67947	-0.67658	0.17227	-0.04364	-0.058594	0.42999	0.13138	-0.001068	0.009003	0.3009	-0.0177	-0.028687	0.024261	-0.001831	-0.012817
25.733	0.055695	1.4102	0.079803	0.004883	0.070343	-0.36331	-0.69107	-0.025482	0.009613	-0.11093	0.09491	0.27664	-0.14145	-0.086975	-0.15152	0.062561	0.1329	-0.70633	-0.51987	0.10178	-0.034027	-0.15854	0.43671	0.14984	-0.03067	0.001526	0.30914	-0.028839	-0.054626	0.036926	-0.003052	-0.018311
25.734	0.04715	1.3857	0.038605	-0.00351	0.038757	-0.15335	-0.65109	-0.023499	0.12283	-0.17807	0.15884	0.23544	-0.16434	0.009308	-0.14191	0.072784	0.1236	-0.83527	-0.4602	0.006561	-0.020294	-0.15747	0.42465	0.084229	-0.040131	0.003662	0.37552	-0.023041	-0.15396	0.032349	-0.003662	-0.016174
25.735	0.0354	1.2534	0.028381	0.002899	0.005493	0.049438	-0.6514	-0.010529	0.21088	-0.22705	0.074921	0.18936	-0.1059	0.05188	0.099487	0.07309	0.099792	-1.0141	-0.42496	0.044556	-0.016327	0.072784	0.41229	0.034027	-0.03952	0.001068	0.35461	-0.027771	-0.10727	0.063171	-0.005341	-0.014038
25.736	0.032501	1.2561	-0.073547	0.005035	-0.061035	0.089722	-0.63736	-0.006561	0.31632	-0.22522	0.046997	0.1471	-0.019531	0.10941	0.016937	0.077667	0.092316	-1.2479	-0.41824	0.022736	-0.018463	0.19409	0.44952	0.005035	-0.049286	-0.000153	0.36102	-0.020752	-0.011597	0.043182	-0.002441	-0.015564
25.737	0.031586	1.2378	-0.079346	0.002289	-0.083008	0.2063	-0.58563	-0.019836	0.2536	-0.18478	0.083008	0.10071	-0.13245	0.073242	0.48309	0.10803	0.019531	-1.3641	-0.54962	0.046844	-0.038757	0.17441	0.48523	0.11292	-0.039978	-0.011292	0.33279	-0.020905	0.010986	0.00351	-0.004578	-0.018158
25.738	0.02182	1.2648	0.00351	-0.003204	-0.065613	0.31525	-0.5661	-0.024719	0.10407	-0.15579	0.058289	0.062408	-0.14008	-0.081177	-0.083923	0.12375	-0.071869	-1.5103	-0.63538	0.078125	0.000763	0.097046	0.52734	0.058441	-0.058136	-0.008545	-0.43518	-0.019989	0.010986	0.016937	-0.003052	-0.016785
